<mxfile host="app.diagrams.net" modified="2024-04-18T05:30:02.656Z" agent="Mozilla/5.0 (Macintosh; Intel Mac OS X 10_15_7) AppleWebKit/605.1.15 (KHTML, like Gecko) Version/17.0 Safari/605.1.15" etag="ARkbx4i1h1z8c9KlulF5" version="24.2.5" type="github">
  <diagram name="ページ1" id="YnHl80-WtwmInPjXQaNg">
    <mxGraphModel dx="1031" dy="478" grid="1" gridSize="15" guides="1" tooltips="1" connect="1" arrows="1" fold="1" page="1" pageScale="1" pageWidth="827" pageHeight="1169" math="0" shadow="0">
      <root>
        <mxCell id="0" />
        <mxCell id="1" value="背景" style="locked=1;" parent="0" />
        <mxCell id="-cHXrjqksQbc73ID16UL-1" value="" style="whiteSpace=wrap;html=1;" parent="1" vertex="1">
          <mxGeometry x="240" y="60" width="480" height="360" as="geometry" />
        </mxCell>
        <mxCell id="-cHXrjqksQbc73ID16UL-2" value="Head" parent="0" />
        <mxCell id="-cHXrjqksQbc73ID16UL-3" value="VP" style="whiteSpace=wrap;html=1;" parent="-cHXrjqksQbc73ID16UL-2" vertex="1">
          <mxGeometry x="240" y="60" width="60" height="30" as="geometry" />
        </mxCell>
      </root>
    </mxGraphModel>
  </diagram>
</mxfile>
